<?xml version="1.0" encoding="UTF-8" standalone="no"?>
<!-- Created with Inkscape (http://www.inkscape.org/) -->

<svg
   width="512"
   height="512"
   viewBox="0 0 512.00001 512.00001"
   id="svg2"
   version="1.1"
   xmlns="http://www.w3.org/2000/svg"
   xmlns:svg="http://www.w3.org/2000/svg"
   xmlns:rdf="http://www.w3.org/1999/02/22-rdf-syntax-ns#"
   xmlns:cc="http://creativecommons.org/ns#"
   xmlns:dc="http://purl.org/dc/elements/1.1/">
  <defs
     id="defs4">
    <style
       id="style3348"
       type="text/css">.fil0 {fill:#B8CF23}</style>
    <mask
       maskUnits="userSpaceOnUse"
       id="mask3426">
      <g
         style="display:inline;fill:#ffffff"
         id="g3428"
         transform="matrix(0.5791721,-1.0075903,1.0075897,0.57917172,-237.42436,421.46137)">
        <rect
           y="0.46292591"
           x="0.46292949"
           height="511.07413"
           width="511.07413"
           id="rect3430"
           style="fill:#ffffff;stroke:#ff0000;stroke-width:0.92585897" />
        <path
           id="path3432"
           d="m 296,248 0,-52 c 0,0 -212,-57.82616 -212,108 0,184 179.97337,124.14594 179.97337,124.14594 l -0.15945,48.70733 36.43862,-20.74032 L 300,340 l 24,-4 0,-12 -92,0 0,12 32,4 0,68 c 0,0 -144,60 -144,-100 0,-160 156,-88 156,-88 l 8,28 z"
           style="fill:#000000;fill-rule:evenodd;stroke:#000000;stroke-width:1px;stroke-linecap:butt;stroke-linejoin:miter;stroke-opacity:1" />
      </g>
    </mask>
  </defs>
  <metadata
     id="metadata7">
    <rdf:RDF>
      <cc:Work
         rdf:about="">
        <dc:format>image/svg+xml</dc:format>
        <dc:type
           rdf:resource="http://purl.org/dc/dcmitype/StillImage" />
      </cc:Work>
    </rdf:RDF>
  </metadata>
  <g
     id="layer2"
     style="display:none">
    <rect
       style="fill:#000000;fill-opacity:1;stroke:#ff0000"
       id="rect4149"
       width="512"
       height="512"
       x="0"
       y="0" />
  </g>
  <g
     transform="translate(0,-540.36216)"
     id="g3447"
     style="display:inline">
    <g
       mask="none"
       transform="matrix(0.42880084,0.74598872,-0.74598824,0.42880112,416.61299,543.05497)"
       id="g3449"
       style="clip-rule:evenodd;fill:#ffffff;fill-rule:evenodd;image-rendering:optimizeQuality;shape-rendering:geometricPrecision;text-rendering:geometricPrecision">
      <path
         style="fill:#ffffff"
         class="fil0"
         d="M 187,80 C 193,66 190,46 178,31 166,15 145,4 121,1 97,-2 70,2 53,6 36,9 28,11 30,16 c 2,4 14,11 32,21 18,10 41,23 57,35 16,12 25,23 36,25 12,2 26,-4 32,-17 z"
         id="path3451" />
      <path
         style="fill:#ffffff"
         class="fil0"
         d="m 168,144 c 0,-21 2,-49 7,-71 5,-21 13,-37 26,-41 13,-5 31,1 33,8 1,8 -14,18 -27,30 -12,12 -23,26 -28,47 -6,21 -6,48 -8,54 -1,7 -3,-6 -3,-27 z"
         id="path3453" />
      <path
         style="fill:#ffffff"
         class="fil0"
         d="m 186,112 c -30,-3 -63,-9 -85,3 -22,13 -32,43 -35,71 -4,28 0,52 -4,69 -3,17 -14,26 -27,45 -12,18 -26,48 -32,89 -6,42 -5,95 23,133 28,37 81,57 134,63 52,5 103,-4 142,-24 38,-20 65,-50 78,-90 13,-41 13,-93 1,-130 -12,-38 -36,-61 -56,-82 -19,-21 -33,-40 -38,-55 -4,-14 2,-25 0,-38 -2,-14 -11,-32 -29,-41 -17,-9 -43,-10 -72,-13 z"
         id="path3455" />
    </g>
  </g>
  <g
     id="layer1"
     transform="translate(0,-540.36216)"
     style="display:inline">
    <g
       style="clip-rule:evenodd;fill:#498c36;fill-opacity:1;fill-rule:evenodd;image-rendering:optimizeQuality;shape-rendering:geometricPrecision;text-rendering:geometricPrecision"
       id="g3361"
       transform="matrix(0.42880084,0.74598872,-0.74598824,0.42880112,416.61299,543.05497)"
       mask="url(#mask3426)">
      <path
         id="path3350"
         d="M 187,80 C 193,66 190,46 178,31 166,15 145,4 121,1 97,-2 70,2 53,6 36,9 28,11 30,16 c 2,4 14,11 32,21 18,10 41,23 57,35 16,12 25,23 36,25 12,2 26,-4 32,-17 z"
         class="fil0"
         style="fill:#498c36;fill-opacity:1" />
      <path
         id="path3352"
         d="m 168,144 c 0,-21 2,-49 7,-71 5,-21 13,-37 26,-41 13,-5 31,1 33,8 1,8 -14,18 -27,30 -12,12 -23,26 -28,47 -6,21 -6,48 -8,54 -1,7 -3,-6 -3,-27 z"
         class="fil0"
         style="fill:#498c36;fill-opacity:1" />
      <path
         id="path3354"
         d="m 186,112 c -30,-3 -63,-9 -85,3 -22,13 -32,43 -35,71 -4,28 0,52 -4,69 -3,17 -14,26 -27,45 -12,18 -26,48 -32,89 -6,42 -5,95 23,133 28,37 81,57 134,63 52,5 103,-4 142,-24 38,-20 65,-50 78,-90 13,-41 13,-93 1,-130 -12,-38 -36,-61 -56,-82 -19,-21 -33,-40 -38,-55 -4,-14 2,-25 0,-38 -2,-14 -11,-32 -29,-41 -17,-9 -43,-10 -72,-13 z"
         class="fil0"
         style="fill:#498c36;fill-opacity:1" />
    </g>
  </g>
</svg>
