<svg width="800px" height="800px" version="1.1" viewBox="0 0 17 17" xml:space="preserve" xmlns="http://www.w3.org/2000/svg"><defs><style type="text/css">.fil0 {fill:#B8CF23}</style><mask id="mask3426" maskUnits="userSpaceOnUse"><g transform="matrix(.57917 -1.0076 1.0076 .57917 -237.42 421.46)"><rect x=".46293" y=".46293" width="511.07" height="511.07" fill="#fff" stroke="#f00" stroke-width=".92586"/><path d="m296 248v-52s-212-57.826-212 108c0 184 179.97 124.15 179.97 124.15l-0.15945 48.707 36.439-20.74-0.25254-116.11 24-4v-12h-92v12l32 4v68s-144 60-144-100 156-88 156-88l8 28z" fill-rule="evenodd" stroke="#000" stroke-width="1px"/></g></mask></defs><rect x="-.56854" y="-.31011" width="18.555" height="18.452" display="none"/><path d="M16.592 1.152c-0.053-0.010-1.321-0.244-2.981-0.244-2.105 0-3.828 0.366-5.125 1.088-1.518-0.765-3.264-1.152-5.196-1.152-1.681 0-2.866 0.302-2.915 0.315l-0.375 0.098 0.001 13.906 0.624-0.161c0.011-0.002 1.12-0.283 2.665-0.283 1.447 0 2.771 0.24 3.96 0.703v0.828h2.5v-0.856c1.281-0.488 2.747-0.611 3.86-0.611 1.562 0 2.786 0.225 2.798 0.227l0.592 0.11v-13.891l-0.408-0.077zM1 13.907v-11.858c0.451-0.084 1.277-0.205 2.29-0.205 1.761 0 3.339 0.36 4.71 1.044v11.776c-1.403-0.617-2.977-0.945-4.71-0.945-0.969 0-1.773 0.101-2.29 0.188zM16 13.938c-0.536-0.070-1.393-0.154-2.39-0.154-1.848 0-3.381 0.298-4.61 0.855v-11.773c1.422-0.78 3.271-0.958 4.61-0.958 1.023 0 1.902 0.097 2.39 0.164v11.866z" fill="#fff"/><g transform="matrix(.28863 -.022121 0 .28709 9.0927 4.6577)" fill="none" stroke="#f3f3f3" stroke-width="1.8701"><g stroke-linecap="round"><path d="m22 22h-20"/><path d="m2 11 8.1259-6.5007c1.0957-0.87652 2.6525-0.87652 3.7482 0l8.1259 6.5007"/><path d="m15.5 5.5v-2c0-0.27614 0.2239-0.5 0.5-0.5h2.5c0.2761 0 0.5 0.22386 0.5 0.5v5" opacity=".5"/><path d="m4 22v-12.5"/><path d="m20 22v-12.5"/></g><path d="M 15,22 V 17 C 15,15.5858 15,14.8787 14.5607,14.4393 14.1213,14 13.4142,14 12,14 10.5858,14 9.87868,14 9.43934,14.4393 9,14.8787 9,15.5858 9,17 v 5" opacity=".5"/><path d="m14 9.5c0 1.1046-0.8954 2-2 2s-2-0.8954-2-2c0-1.1046 0.8954-2 2-2s2 0.89543 2 2z" opacity=".5"/></g><g transform="matrix(.012693 .0024771 0 .012693 1.2617 4.2569)" stroke-width="1.6742"><g display="none"><rect width="512" height="512" stroke="#f00" stroke-width="1.6742"/></g><g transform="translate(0 -540.36)" clip-rule="evenodd" fill-rule="evenodd" shape-rendering="geometricPrecision"><g transform="matrix(.4288 .74599 -.74599 .4288 416.61 543.05)" fill="#fff" image-rendering="optimizeQuality"><path class="fil0" d="m187 80c6-14 3-34-9-49-12-16-33-27-57-30s-51 1-68 5c-17 3-25 5-23 10 2 4 14 11 32 21s41 23 57 35 25 23 36 25c12 2 26-4 32-17z"/><path class="fil0" d="m168 144c0-21 2-49 7-71 5-21 13-37 26-41 13-5 31 1 33 8 1 8-14 18-27 30-12 12-23 26-28 47-6 21-6 48-8 54-1 7-3-6-3-27z"/><path class="fil0" d="m186 112c-30-3-63-9-85 3-22 13-32 43-35 71-4 28 0 52-4 69-3 17-14 26-27 45-12 18-26 48-32 89-6 42-5 95 23 133 28 37 81 57 134 63 52 5 103-4 142-24 38-20 65-50 78-90 13-41 13-93 1-130-12-38-36-61-56-82-19-21-33-40-38-55-4-14 2-25 0-38-2-14-11-32-29-41-17-9-43-10-72-13z"/></g><g transform="matrix(.4288 .74599 -.74599 .4288 416.61 543.05)" fill="#498c36" image-rendering="optimizeQuality" mask="url(#mask3426)"><path class="fil0" d="m187 80c6-14 3-34-9-49-12-16-33-27-57-30s-51 1-68 5c-17 3-25 5-23 10 2 4 14 11 32 21s41 23 57 35 25 23 36 25c12 2 26-4 32-17z"/><path class="fil0" d="m168 144c0-21 2-49 7-71 5-21 13-37 26-41 13-5 31 1 33 8 1 8-14 18-27 30-12 12-23 26-28 47-6 21-6 48-8 54-1 7-3-6-3-27z"/><path class="fil0" d="m186 112c-30-3-63-9-85 3-22 13-32 43-35 71-4 28 0 52-4 69-3 17-14 26-27 45-12 18-26 48-32 89-6 42-5 95 23 133 28 37 81 57 134 63 52 5 103-4 142-24 38-20 65-50 78-90 13-41 13-93 1-130-12-38-36-61-56-82-19-21-33-40-38-55-4-14 2-25 0-38-2-14-11-32-29-41-17-9-43-10-72-13z"/></g></g></g></svg>
